<svg xmlns="http://www.w3.org/2000/svg" xmlns:xlink="http://www.w3.org/1999/xlink" version="1.1" x="0px" y="0px" viewBox="0 0 90 112.5" enable-background="new 0 0 90 90" xml:space="preserve"><path fill="#000000" d="M72.3,32.2v7.1v25.7c0,4.3-3.5,7.7-7.7,7.7H25.4c-4.3,0-7.7-3.5-7.7-7.7V39.3v-7.1c0-4.3,3.5-7.7,7.7-7.7  h2.6v3V32c0,3.1,2.5,5.6,5.6,5.6s5.6-2.5,5.6-5.6v-4.5v-3h12.2v3V32c0,3.1,2.5,5.6,5.6,5.6c3.1,0,5.6-2.5,5.6-5.6v-4.5v-3h2.1  C68.8,24.5,72.3,27.9,72.3,32.2z M70,38.6H20v26.4c0,3,2.4,5.4,5.4,5.4h39.2c3,0,5.4-2.4,5.4-5.4V38.6z M33.6,35.4  c1.9,0,3.4-1.5,3.4-3.4v-4.5v-3v-3.8c0-1.9-1.5-3.4-3.4-3.4c-1.9,0-3.4,1.5-3.4,3.4v3.8v3V32C30.2,33.9,31.7,35.4,33.6,35.4z   M57,35.4c1.9,0,3.4-1.5,3.4-3.4v-4.5v-3v-3.8c0-1.9-1.5-3.4-3.4-3.4c-1.9,0-3.4,1.5-3.4,3.4v3.8v3V32C53.5,33.9,55.1,35.4,57,35.4z   M57.5,45.8c-1-1-2.7-1-3.7,0L41.6,57.9l-5.4-5.4c-1-1-2.7-1-3.7,0c-1,1-1,2.7,0,3.7l7.2,7.2c0.5,0.5,1.2,0.8,1.8,0.8  s1.3-0.3,1.8-0.8l14-14C58.5,48.4,58.5,46.8,57.5,45.8z"/><text x="0" y="105" fill="#000000" font-size="5px" font-weight="bold" font-family="'Helvetica Neue', Helvetica, Arial-Unicode, Arial, Sans-serif">Created by Tommy Lau</text><text x="0" y="110" fill="#000000" font-size="5px" font-weight="bold" font-family="'Helvetica Neue', Helvetica, Arial-Unicode, Arial, Sans-serif">from the Noun Project</text></svg>